<?xml version="1.0" encoding="UTF-8"?>
<svg xmlns="http://www.w3.org/2000/svg" viewBox="458 348 368 74">
  <path d="m504.47,385.41c-1.77-1.51-3.93-2.8-6.5-3.89-2.57-1.08-5.5-2.05-8.78-2.91-2.78-.74-5.09-1.39-6.92-1.95-1.82-.55-3.26-1.14-4.32-1.76-1.05-.62-1.78-1.31-2.18-2.08-.4-.77-.6-1.68-.6-2.73v-.19c0-1.61.69-2.95,2.08-4.03,1.39-1.08,3.48-1.62,6.26-1.62s5.55.57,8.33,1.71c2.78,1.15,5.62,2.71,8.52,4.68l7.41-10.74c-3.33-2.66-6.99-4.7-10.97-6.12-3.99-1.42-8.36-2.13-13.11-2.13-3.33,0-6.39.47-9.15,1.39-2.77.93-5.15,2.26-7.15,3.98-1.99,1.73-3.54,3.79-4.64,6.16-1.11,2.38-1.66,5.05-1.66,8.02v.18c0,3.21.51,5.9,1.53,8.06,1.02,2.16,2.46,3.97,4.32,5.42,1.86,1.45,4.12,2.67,6.78,3.66s5.63,1.88,8.92,2.68c2.72.68,4.93,1.33,6.64,1.95,1.7.62,3.03,1.23,3.99,1.85s1.61,1.28,1.95,1.99c.34.71.51,1.53.51,2.46v.18c0,1.92-.82,3.41-2.45,4.49-1.64,1.09-3.94,1.63-6.9,1.63-3.71,0-7.12-.71-10.24-2.13-3.12-1.42-6.16-3.34-9.12-5.75l-8.43,10.1c3.89,3.52,8.21,6.13,12.97,7.82,4.75,1.7,9.6,2.55,14.54,2.55,3.52,0,6.72-.45,9.62-1.34,2.89-.9,5.38-2.19,7.47-3.89,2.08-1.7,3.71-3.8,4.87-6.3,1.17-2.5,1.75-5.36,1.75-8.57v-.18c0-2.84-.45-5.28-1.35-7.32-.89-2.04-2.23-3.81-3.99-5.33Z"/>
  <polygon points="571.31 392.5 540.93 352.58 527.78 352.58 527.78 417.42 541.85 417.42 541.85 376.2 573.26 417.42 585.39 417.42 585.39 352.58 571.31 352.58 571.31 392.5"/>
  <rect x="607.16" y="352.58" width="14.26" height="64.84"/>
  <polygon points="721.29 387.11 747.85 387.11 747.85 374.42 721.29 374.42 721.29 365.27 756.03 365.27 756.03 352.58 707.22 352.58 707.22 417.42 756.49 417.42 756.49 404.73 721.29 404.73 721.29 387.11"/>
  <polygon points="789.09 404.54 789.09 352.58 774.83 352.58 774.83 417.42 821.42 417.42 821.42 404.54 789.09 404.54"/>
  <path d="m661.98,382.25l-6.49-29.67h-16.14l10.22,39.39c.05-.02.1-.05.15-.07.04-.02.09-.04.13-.06,3.81-1.67,8.05-2.67,12.55-2.21,2.81.29,5.31,1.09,7.54,2.21.32.16.63.33.94.51.04.02.09.05.13.07l22.87-39.84h-15.88l-16.03,29.67Z"/>
  <path d="m661.75,396.03c-3.68-.37-7.25.63-10.45,2.22-.03.01-.06.03-.09.04l1.19,4.6h.04l3.83,15.45,8.69-15.45h.04l2.8-4.88s-.05-.03-.08-.04c-1.76-.99-3.75-1.7-5.98-1.93Z"/>
</svg>
