<svg xmlns="http://www.w3.org/2000/svg" viewBox="0 0 100 100">
  <circle cx="50" cy="50" r="48" fill="#111827"/>
  <!-- V extracted from snivel-logo.svg, recentered for 100x100 viewBox -->
  <g transform="translate(50, 50) scale(1.3) translate(-666, -390)">
    <!-- Main V -->
    <path fill="white" d="m661.98,382.25l-6.49-29.67h-16.14l10.22,39.39c.05-.02.1-.05.15-.07.04-.02.09-.04.13-.06,3.81-1.67,8.05-2.67,12.55-2.21,2.81.29,5.31,1.09,7.54,2.21.32.16.63.33.94.51.04.02.09.05.13.07l22.87-39.84h-15.88l-16.03,29.67Z"/>
    <!-- Accent V -->
    <path fill="white" d="m661.75,396.03c-3.68-.37-7.25.63-10.45,2.22-.03.01-.06.03-.09.04l1.19,4.6h.04l3.83,15.45,8.69-15.45h.04l2.8-4.88s-.05-.03-.08-.04c-1.76-.99-3.75-1.7-5.98-1.93Z"/>
  </g>
</svg>
